<svg xmlns="http://www.w3.org/2000/svg" width="512" height="512" viewBox="0 0 512 512" fill="none">
  <path d="M95.5,176.5 L95.5,193.8 L101.2,211.2 L101.2,243.0 L72.3,465.7 L75.2,474.4 L431.0,474.4 L431.0,442.6 L402.1,228.5 L410.8,176.5 Z M231.4,251.7 L271.9,251.7 L286.4,266.1 L286.4,355.8 L283.5,358.7 L219.8,358.7 L216.9,355.8 L219.8,352.9 L219.8,332.7 L216.9,329.8 L219.8,280.6 L216.9,271.9 L219.8,263.2 Z M63.6,37.6 L63.6,147.5 L69.4,153.3 L436.8,153.3 L442.6,147.5 L442.6,40.5 L436.8,34.7 L378.9,34.7 L378.9,86.8 L376.0,89.7 L341.3,89.7 L338.4,86.8 L338.4,37.6 L335.5,34.7 L274.8,34.7 L274.8,86.8 L271.9,89.7 L234.3,89.7 L231.4,86.8 L231.4,34.7 L170.7,34.7 L170.7,86.8 L167.8,89.7 L130.2,89.7 L127.3,86.8 L127.3,34.7 L69.4,34.7 Z" fill="#0B2B50" fill-rule="evenodd"/>
</svg>
